<svg height="308" id="167320984921945223" width="560" version="1.1" 
		xmlns:dc="http://purl.org/dc/elements/1.1/"
		xmlns:cc="http://creativecommons.org/ns#"
		xmlns:rdf="http://www.w3.org/1999/02/22-rdf-syntax-ns#"
		xmlns:svg="http://www.w3.org/2000/svg"
		xmlns="http://www.w3.org/2000/svg"
		xmlns:sodipodi="http://sodipodi.sourceforge.net/DTD/sodipodi-0.dtd"
		xmlns:inkscape="http://www.inkscape.org/namespaces/inkscape"
		viewBox="0 0 560 308" style="width: 560px; height: 308px;transition: 0.3s;border-radius: 5px; position: absolute; top: 50%;font-size:48px; left: 50%; transform: translate(-50%, -50%) scale(1); z-index: 0; cursor: pointer;"><defs><style type="text/css">@import url("https://fonts.googleapis.com/css2?family=Spirax ");</style></defs><defs><style type="text/css">@import url("");</style></defs><style>.mytextnew167320984921945223{text-align:center;font-family: 'Spirax', cursive;}.mytextnew2167320984921945223{text-align:center;font-family: 'Spirax', cursive;}</style><g id="167320984921945223" featurekey="nameFeature-0" fill="#000"  transform="translate(69.875,104) scale(1.4492753623188)"><g><g><path d="m47.06 56.919v4.412h-20.14v-23.05h5.176v18.638z" fill="#dae8f0"/></g><g><path d="m64.689 38.795-6.202-13.145v-10.714c1.101-.411 1.891-1.465 1.891-2.707 0-.552-.447-1-1-1s-1 .448-1 1c0 .495-.403.898-.898.898-.489 0-.888-.403-.888-.898 0-.552-.447-1-1-1h-8.25c-.614-.785-1.558-1.3-2.63-1.3-.481 0-.937.106-1.351.29v-.199c0-1.848-1.503-3.351-3.35-3.351-.916 0-1.745.371-2.351.968-.605-.597-1.435-.968-2.351-.968-.915 0-1.744.371-2.35.968-.605-.597-1.435-.968-2.351-.968-1.848 0-3.351 1.503-3.351 3.351v.57c-1.081-.969-2.46-1.504-3.93-1.504-.553 0-1 .448-1 1v1.148h-9.257c-.553 0-1 .448-1 1 0 .493-.397.895-.886.895-.498 0-.903-.401-.903-.895 0-.552-.447-1-1-1s-1 .448-1 1c0 1.364.954 2.503 2.229 2.808v10.609l-6.2 13.144c-.146.31-.124.673.06.962.184.29.502.465.845.465h12.597c.343 0 .661-.175.845-.465.184-.289.206-.652.06-.962l-6.202-13.145v-10.849c.634-.331 1.132-.889 1.382-1.568h8.435v13.634c0 .984.496 1.888 1.326 2.416l4.42 2.813v5.186h-1.157c-.553 0-1 .448-1 1v22.049h-7.979c-.553 0-1 .448-1 1s.447 1 1 1h8.979 20.143 8.979c.553 0 1-.448 1-1s-.447-1-1-1h-7.979v-22.049c0-.552-.447-1-1-1h-.792v-4.301c0-3.694 1.792-4.427 1.792-8.615v-5.83-5.258c0-.017-.005-.033-.005-.05h6.712c.293.795.926 1.422 1.719 1.715v10.707l-6.203 13.145c-.146.31-.124.673.06.962.184.29.502.465.845.465h12.597c.343 0 .661-.175.845-.465.179-.289.202-.652.055-.962zm-57.896-.573 4.721-10.004 4.721 10.004zm37.919-26.293c.744 0 1.35.605 1.35 1.35v5.258c0 .745-.605 1.35-1.35 1.35s-1.351-.605-1.351-1.35v-5.258c0-.745.606-1.35 1.351-1.35zm-4.701-3.26c.744 0 1.35.606 1.35 1.351 0 .184 0 8.804 0 8.517 0 .745-.605 1.35-1.35 1.35s-1.351-.605-1.351-1.35v-8.517c.001-.745.606-1.351 1.351-1.351zm-4.701 0c.745 0 1.351.606 1.351 1.351v8.517c0 .745-.605 1.35-1.351 1.35-.744 0-1.35-.605-1.35-1.35v-8.517c.001-.745.606-1.351 1.35-1.351zm-4.7 0c.745 0 1.351.606 1.351 1.351v8.517c0 .745-.605 1.35-1.351 1.35-.743 0-1.347-.603-1.35-1.345 0-.132-.001-9.09-.001-8.522.001-.745.606-1.351 1.351-1.351zm-2.691 51.662v-21.049h18.143v21.049c-.001 0-18.143 0-18.143 0zm2.157-23.049v-5.735c0-.342-.175-.66-.463-.844l-4.883-3.107c-.251-.159-.4-.432-.4-.729v-15.654c.667.175 1.278.525 1.778 1.031.741.733 1.149 1.714 1.151 2.762 0 .104.001 10.028.001 9.397 0 .452.303.847.738.965.743.341 4.74.511 6.387 4.526.209.512.795.754 1.304.546.512-.209.756-.793.546-1.305-1.961-4.787-6.653-5.337-6.975-5.497v-2.041c1.288.57 2.736.273 3.7-.679 1.308 1.291 3.393 1.29 4.7 0 1.308 1.291 3.393 1.29 4.7 0 .963.95 2.411 1.25 3.7.678v2.769c0 3.695-1.792 4.443-1.792 8.615v4.301zm22.69.94 4.721-10.004 4.721 10.004z" fill="#626975"/></g><g><path d="m3.5 37.991c.06 4.387 3.624 7.907 8.013 7.907 4.401 0 7.953-3.521 8.013-7.907z" fill="#f69a8b"/></g><g><path d="m49.474 37.991c.06 4.387 3.624 7.907 8.013 7.907 4.402 0 7.953-3.521 8.013-7.907z" fill="#f69a8b"/></g></g><g fill="#626975"><circle cx="31.034" cy="47.388" r=".998"/><circle cx="31.034" cy="42.797" r=".998"/></g></g><g id="167320984921945223" featurekey="nameFeature-0" fill="#000"><text x="189.875" y="50%" dominant-baseline="middle" text-anchor="left" class="mytextnew167320984921945223" style="font-size:48px;fill:#000;">esqstream.com</text><text x="340" y="184" dominant-baseline="middle" text-anchor="left" class="mytextnew2167320984921945223" style="font-size:48px;fill:#000;"></text></g></svg>